<?xml version="1.0" encoding="utf-8" ?>
<svg xmlns="http://www.w3.org/2000/svg" xmlns:xlink="http://www.w3.org/1999/xlink" width="2500" height="2500">
	<path fill="#FCFCFC" d="M1204.12 50.5774Q1233.56 49.4517 1263.02 49.7715Q1292.48 50.0912 1321.88 51.8556Q1351.29 53.62 1380.58 56.8248Q1409.86 60.0296 1438.96 64.6671Q1468.05 69.3045 1496.88 75.3635Q1525.71 81.4225 1554.21 88.8884Q1582.71 96.3543 1610.81 105.209Q1638.9 114.064 1666.53 124.287Q1694.16 134.509 1721.26 146.075Q1748.35 157.64 1774.85 170.521Q1801.35 183.402 1827.18 197.566Q1853.01 211.731 1878.11 227.146Q1903.22 242.561 1927.54 259.189Q1951.86 275.817 1975.33 293.618Q1998.81 311.419 2021.38 330.349Q2043.95 349.28 2065.57 369.296Q2087.19 389.311 2107.8 410.363Q2128.41 431.414 2147.96 453.452Q2167.51 475.489 2185.96 498.459Q2204.41 521.428 2221.7 545.275Q2239 569.122 2255.11 593.789Q2271.22 618.456 2286.1 643.883Q2300.98 669.311 2314.59 695.437Q2328.2 721.564 2340.52 748.327Q2352.83 775.089 2363.82 802.424Q2374.81 829.759 2384.44 857.6Q2394.08 885.44 2402.33 913.72Q2410.59 942 2417.45 970.651Q2424.31 999.302 2429.75 1028.25Q2435.2 1057.21 2439.22 1086.39Q2443.24 1115.58 2445.82 1144.92Q2448.4 1174.27 2449.54 1203.71Q2450.68 1233.15 2450.37 1262.61Q2450.07 1292.07 2448.32 1321.47Q2446.57 1350.88 2443.38 1380.17Q2440.19 1409.46 2435.56 1438.55Q2430.94 1467.65 2424.89 1496.48Q2418.85 1525.32 2411.4 1553.82Q2403.94 1582.32 2395.1 1610.42Q2386.26 1638.52 2376.05 1666.16Q2365.84 1693.79 2354.29 1720.9Q2342.74 1748 2329.87 1774.5Q2317 1801 2302.85 1826.84Q2288.7 1852.68 2273.29 1877.79Q2257.89 1902.9 2241.27 1927.23Q2224.66 1951.56 2206.87 1975.04Q2189.08 1998.52 2170.16 2021.1Q2151.24 2043.69 2131.23 2065.31Q2111.23 2086.94 2090.19 2107.56Q2069.14 2128.18 2047.12 2147.74Q2025.09 2167.3 2002.13 2185.76Q1979.17 2204.22 1955.33 2221.53Q1931.49 2238.84 1906.83 2254.96Q1882.17 2271.08 1856.75 2285.97Q1831.33 2300.86 1805.21 2314.49Q1779.09 2328.11 1752.33 2340.44Q1725.57 2352.77 1698.25 2363.77Q1670.92 2374.77 1643.08 2384.42Q1615.24 2394.06 1586.97 2402.33Q1558.69 2410.6 1530.04 2417.48Q1501.4 2424.35 1472.45 2429.81Q1443.5 2435.27 1414.31 2439.3Q1385.13 2443.33 1355.78 2445.93Q1326.44 2448.53 1297 2449.68Q1267.54 2450.83 1238.07 2450.54Q1208.59 2450.25 1179.16 2448.51Q1149.74 2446.77 1120.43 2443.59Q1091.12 2440.41 1062.01 2435.79Q1032.9 2431.17 1004.04 2425.14Q975.19 2419.1 946.668 2411.65Q918.146 2404.2 890.024 2395.36Q861.903 2386.52 834.249 2376.31Q806.594 2366.1 779.475 2354.55Q752.355 2342.99 725.836 2330.12Q699.316 2317.25 673.46 2303.09Q647.604 2288.94 622.474 2273.53Q597.343 2258.12 573 2241.49Q548.657 2224.87 525.158 2207.07Q501.66 2189.27 479.064 2170.34Q456.468 2151.41 434.828 2131.39Q413.188 2111.37 392.557 2090.32Q371.926 2069.26 352.353 2047.22Q332.78 2025.18 314.313 2002.2Q295.845 1979.23 278.528 1955.37Q261.21 1931.52 245.085 1906.84Q228.959 1882.16 214.064 1856.72Q199.169 1831.29 185.541 1805.15Q171.912 1779.01 159.583 1752.23Q147.254 1725.46 136.254 1698.11Q125.254 1670.76 115.609 1642.9Q105.965 1615.05 97.6994 1586.75Q89.4338 1558.46 82.567 1529.79Q75.7003 1501.12 70.2488 1472.15Q64.7974 1443.18 60.7745 1413.98Q56.7515 1384.78 54.1667 1355.41Q51.582 1326.05 50.4416 1296.59Q49.3012 1267.13 49.608 1237.66Q49.9148 1208.18 51.668 1178.75Q53.4212 1149.33 56.6166 1120.02Q59.812 1090.72 64.4418 1061.61Q69.0717 1032.49 75.1249 1003.64Q81.1781 974.794 88.6401 946.276Q96.102 917.758 104.955 889.64Q113.807 861.523 124.029 833.874Q134.252 806.224 145.818 779.11Q157.385 751.996 170.269 725.482Q183.153 698.969 197.322 673.119Q211.492 647.27 226.913 622.147Q242.334 597.025 258.97 572.689Q275.606 548.353 293.416 524.864Q311.226 501.374 330.168 478.787Q349.109 456.2 369.137 434.569Q389.164 412.939 410.229 392.318Q431.294 371.696 453.346 352.134Q475.398 332.572 498.383 314.115Q521.368 295.658 545.232 278.352Q569.095 261.046 593.779 244.932Q618.464 228.818 643.909 213.935Q669.354 199.052 695.499 185.436Q721.644 171.82 748.426 159.503Q775.208 147.187 802.562 136.2Q829.917 125.213 857.777 115.582Q885.638 105.95 913.937 97.6981Q942.237 89.4459 970.907 82.5927Q999.578 75.7395 1028.55 70.3017Q1057.52 64.864 1086.73 60.8548Q1115.93 56.8457 1145.3 54.2748Q1174.66 51.7038 1204.12 50.5774Z"/>
	<defs>
		<linearGradient id="gradient_0" gradientUnits="userSpaceOnUse" x1="1092.8125" y1="1760.9652" x2="1162.5261" y2="1058.8687">
			<stop offset="0" stop-color="#3D081C"/>
			<stop offset="1" stop-color="#B21E47"/>
		</linearGradient>
	</defs>
	<path fill="url(#gradient_0)" d="M1078.32 1588.35C1058.79 1627.03 1037.53 1665.34 1003.56 1693.43C978.889 1713.82 946.781 1726.61 914.509 1723.37C868.367 1718.72 829.151 1684.43 801.155 1649.9C772.161 1614.15 749.083 1573.01 728.181 1532.12C679.946 1437.78 642.144 1339.04 603.592 1240.52L573.665 1163.51C566.321 1144.66 558.067 1125.47 552.783 1105.93C549.33 1093.17 547.006 1079.38 548.523 1066.14C550.751 1046.7 559.672 1029.91 575.328 1017.91C591.835 1005.24 613.561 1001.37 633.866 1004.22C657.876 1007.59 679.703 1018.98 698.74 1033.65C785.539 1100.57 814.149 1230.72 845.243 1330.28C865.363 1394.71 904.406 1516.03 944.371 1567.64C950.835 1575.99 959.915 1586.31 971.059 1587.36C1015.02 1591.53 1067.43 1384.43 1083.79 1347.14C1091.07 1330.55 1100.84 1310.73 1115.77 1299.68C1124.07 1293.52 1134.22 1290.27 1144.52 1292.29C1155.78 1294.48 1164.77 1302.46 1171.45 1311.39C1197.94 1346.84 1220.77 1436.78 1238.99 1482.35C1253.1 1517.65 1268.62 1550.06 1290.4 1581.31C1291.41 1591.16 1327.01 1634.55 1335.1 1641.34C1336.27 1642.32 1337.49 1642.83 1338.89 1643.42C1339.44 1644.39 1339.55 1644.64 1340.36 1645.62C1348.14 1654.93 1359.28 1663.34 1369.16 1670.36C1407.91 1697.89 1453.46 1716.36 1501.41 1717.6C1584.59 1719.74 1657.42 1679.56 1715.95 1623.57L1719.08 1624.85C1719.7 1624.55 1720.32 1624.23 1720.94 1623.93C1723.27 1622.81 1722.29 1623.08 1724.3 1622.78C1721.07 1627.55 1717.76 1632.11 1714.16 1636.61C1717.86 1633.82 1721.47 1630.52 1726.02 1629.28L1729.43 1629.84C1701.34 1671.93 1650.72 1713.68 1607.43 1739.62C1525.2 1788.91 1424.51 1808.83 1330.77 1785.22C1220.85 1757.53 1135.67 1684.58 1078.32 1588.35Z"/>
	<defs>
		<linearGradient id="gradient_1" gradientUnits="userSpaceOnUse" x1="1429.6449" y1="1662.8448" x2="1666.6376" y2="735.17413">
			<stop offset="0" stop-color="#020304"/>
			<stop offset="1" stop-color="#404045"/>
		</linearGradient>
	</defs>
	<path fill="url(#gradient_1)" d="M1290.4 1581.31C1296.05 1586.07 1300.91 1589.22 1308.58 1588.38C1323.08 1586.8 1335.78 1570.83 1343.87 1559.77C1411.3 1467.54 1457.94 1307.66 1484 1196.63C1491.21 1165.93 1497.83 1134.76 1503.58 1103.77C1522.88 999.683 1541.58 893.902 1625.76 820.286Q1628.78 817.611 1631.89 815.043Q1635 812.475 1638.19 810.018Q1641.39 807.561 1644.68 805.218Q1647.96 802.874 1651.32 800.647Q1654.68 798.421 1658.12 796.313Q1661.56 794.206 1665.07 792.22Q1668.58 790.235 1672.16 788.374Q1675.73 786.512 1679.38 784.778Q1683.02 783.044 1686.72 781.438Q1690.42 779.832 1694.17 778.357Q1697.92 776.883 1701.73 775.54Q1705.53 774.198 1709.38 772.99Q1713.22 771.782 1717.11 770.71Q1721 769.638 1724.92 768.703Q1728.84 767.768 1732.8 766.971Q1736.75 766.174 1740.73 765.516C1766.19 761.274 1788.86 762.782 1813.22 771.554C1794.22 787.061 1779.89 806.405 1769.14 828.345C1743.66 880.332 1730.33 939.613 1713.9 995.02Q1698.86 1046.96 1681.5 1098.16Q1664.14 1149.37 1644.49 1199.74C1594.68 1324.93 1529.75 1462.95 1440.19 1564.4C1416.54 1591.19 1373.16 1635.35 1338.89 1643.42C1337.49 1642.83 1336.27 1642.32 1335.1 1641.34C1327.01 1634.55 1291.41 1591.16 1290.4 1581.31Z"/>
	<path fill="#690D2D" d="M1796.02 1515.02C1785.68 1543.35 1766.87 1581.95 1747.66 1605.39C1743.29 1613.09 1736.35 1624.26 1729.43 1629.84L1726.02 1629.28C1721.47 1630.52 1717.86 1633.82 1714.16 1636.61C1717.76 1632.11 1721.07 1627.55 1724.3 1622.78C1722.29 1623.08 1723.27 1622.81 1720.94 1623.93C1720.32 1624.23 1719.7 1624.55 1719.08 1624.85L1715.95 1623.57C1725.1 1614.08 1733.73 1603.96 1742.7 1594.28C1761.79 1568.4 1779.23 1542.44 1796.02 1515.02Z"/>
</svg>
