<?xml version="1.0" encoding="utf-8" ?>
<svg xmlns="http://www.w3.org/2000/svg" xmlns:xlink="http://www.w3.org/1999/xlink" width="3000" height="3000">
	<path fill="#500B2C" d="M684.816 1468.92C666.713 1407.86 612.6 1321.68 625.914 1258.94Q626.13 1257.93 626.371 1256.93Q626.611 1255.93 626.877 1254.93Q627.143 1253.93 627.433 1252.94Q627.723 1251.95 628.038 1250.97Q628.353 1249.99 628.692 1249.01Q629.031 1248.04 629.394 1247.08Q629.758 1246.11 630.145 1245.15Q630.532 1244.2 630.943 1243.25Q631.354 1242.31 631.788 1241.37Q632.222 1240.44 632.679 1239.51Q633.136 1238.59 633.616 1237.67Q634.097 1236.76 634.599 1235.86Q635.102 1234.96 635.627 1234.07Q636.152 1233.18 636.698 1232.31Q637.245 1231.44 637.814 1230.57Q638.382 1229.71 638.971 1228.87Q639.561 1228.02 640.171 1227.19Q640.782 1226.36 641.413 1225.54Q642.043 1224.73 642.694 1223.93Q643.345 1223.13 644.016 1222.34Q644.687 1221.56 645.377 1220.79Q646.067 1220.03 646.775 1219.28Q647.484 1218.53 648.211 1217.8Q648.938 1217.07 649.684 1216.35Q650.429 1215.64 651.191 1214.94Q651.954 1214.25 652.734 1213.58Q653.513 1212.9 654.309 1212.24Q655.105 1211.59 655.918 1210.95Q656.73 1210.32 657.558 1209.7Q658.385 1209.09 659.228 1208.49Q660.071 1207.9 660.928 1207.33Q661.786 1206.75 662.657 1206.2C686.134 1191.05 714.945 1189.01 741.714 1195.06C785.699 1205 837.362 1243.45 861.119 1281.37C864.965 1286.23 868.784 1291.06 872.35 1296.13C908.324 1338.72 938.02 1420.13 954.028 1472.88C970.628 1516.92 982.104 1563.89 996.281 1608.83C1015.49 1669.73 1087.45 1895.26 1142.61 1919.16C1149.06 1921.95 1156 1922.5 1162.61 1919.88C1192.04 1908.25 1218.87 1834.22 1229.89 1806.01C1244.08 1769.71 1256.18 1731.45 1267.28 1694.09C1274.83 1669.12 1282.82 1643.38 1293.93 1619.75C1295.11 1615.49 1297.04 1611.35 1299.01 1607.4C1312.08 1581.28 1326.64 1561.2 1355.12 1551.5C1372.09 1552.15 1383.47 1556.74 1395.15 1569.43C1397.44 1571.92 1399.66 1574.43 1401.75 1577.1C1428.91 1612.59 1448.42 1684.82 1463.5 1728.08C1479.85 1774.99 1496.62 1821.38 1519.76 1865.48C1529.06 1883.2 1538.81 1903.03 1553.78 1916.7C1553.64 1918.1 1552.78 1921.93 1553.14 1923.1C1555.68 1931.54 1576.33 1954.49 1582.86 1962.49C1590.96 1972.43 1604.76 1984.11 1611.09 1994.42L1612.33 1994.46C1616.2 1999.76 1621.76 2003.7 1626.8 2007.85C1679.39 2051.87 1741.9 2082.27 1811.31 2085.08C1912.95 2086.16 1994.46 2045.54 2069.47 1979.78C2099.25 1950.02 2125.83 1919.54 2149.73 1884.87C2159.49 1870.72 2166 1849.79 2177.88 1838.16L2179.38 1838.98C2179.46 1842.66 2178.64 1843.43 2176.72 1846.36C2169.85 1856.81 2165.82 1870.85 2159.54 1882.05C2137.35 1921.62 2114.24 1958.44 2084.91 1993.19C2050.16 2035.21 1997.41 2085.21 1948.56 2110.58C1943.87 2114.04 1938.64 2116.73 1933.55 2119.57C1825.65 2179.72 1698.87 2198.04 1579.38 2163.66C1456.16 2128.2 1347.61 2033.34 1286.06 1921.82C1273.31 1945.02 1262.21 1968.39 1247.5 1990.54C1216 2037.97 1175.17 2078.76 1117.62 2090.4C1084.59 2089.93 1069.34 2093.97 1036.73 2079.85C988.142 2058.82 950.569 2016.42 920.155 1974.26C894.709 1939 873.38 1900.23 853.13 1861.8C786.574 1735.5 737.62 1601.23 684.816 1468.92Z"/>
	<path fill="#500B2C" d="M684.816 1468.92C666.713 1407.86 612.6 1321.68 625.914 1258.94Q626.13 1257.93 626.371 1256.93Q626.611 1255.93 626.877 1254.93Q627.143 1253.93 627.433 1252.94Q627.723 1251.95 628.038 1250.97Q628.353 1249.99 628.692 1249.01Q629.031 1248.04 629.394 1247.08Q629.758 1246.11 630.145 1245.15Q630.532 1244.2 630.943 1243.25Q631.354 1242.31 631.788 1241.37Q632.222 1240.44 632.679 1239.51Q633.136 1238.59 633.616 1237.67Q634.097 1236.76 634.599 1235.86Q635.102 1234.96 635.627 1234.07Q636.152 1233.18 636.698 1232.31Q637.245 1231.44 637.814 1230.57Q638.382 1229.71 638.971 1228.87Q639.561 1228.02 640.171 1227.19Q640.782 1226.36 641.413 1225.54Q642.043 1224.73 642.694 1223.93Q643.345 1223.13 644.016 1222.34Q644.687 1221.56 645.377 1220.79Q646.067 1220.03 646.775 1219.28Q647.484 1218.53 648.211 1217.8Q648.938 1217.07 649.684 1216.35Q650.429 1215.64 651.191 1214.94Q651.954 1214.25 652.734 1213.58Q653.513 1212.9 654.309 1212.24Q655.105 1211.59 655.918 1210.95Q656.73 1210.32 657.558 1209.7Q658.385 1209.09 659.228 1208.49Q660.071 1207.9 660.928 1207.33Q661.786 1206.75 662.657 1206.2C686.134 1191.05 714.945 1189.01 741.714 1195.06C785.699 1205 837.362 1243.45 861.119 1281.37L858.827 1284.52C855.731 1284.99 853.986 1284.48 851.043 1283.49L850.506 1285.31C855.787 1291.45 866.159 1301.28 864.366 1310.2C862.514 1319.41 855.516 1324.22 854.088 1335.74L850.529 1339.73L847.335 1336.59L845.779 1337.49L847.177 1341.78L845.793 1343.5L844.582 1340.49L841.67 1341.13L840.352 1343.6C839.113 1345.89 837.822 1347.67 836.035 1349.58C833.258 1349.71 831.698 1349.22 829.144 1348.16C826.706 1350.94 827.189 1354.18 826.844 1357.8L826.606 1354.55C824.218 1354.89 819.854 1354.9 817.777 1355.82C813.423 1357.75 804.608 1367.75 801.701 1371.63C799.494 1374.57 798.097 1377.48 797.335 1381.1C798.073 1383.24 799.723 1385.99 798.815 1388.08L798.123 1386.09L797.099 1387.53L798.791 1388.13L798.278 1386.48L795.771 1386.57L794.063 1385.13L793.436 1385.66L791.674 1382.87L792.236 1383.73L790.672 1385.78L790.517 1390.49L788.341 1388.34C781.705 1392.13 768.055 1398.4 765.831 1405.73C765.451 1406.98 765.172 1408.26 764.868 1409.54L762.938 1411.46L763.414 1410.75L761.158 1411.05L758.501 1409.45C753.933 1413.26 753.486 1417.25 752.975 1422.85C752.572 1427.28 753.436 1428.62 750.051 1431.55L742.545 1432.04L740.589 1434.95C743.817 1441.05 750.22 1434.75 748.145 1445.57C742.948 1448.05 738.916 1444.17 737.15 1450.75C736.469 1453.28 736.685 1456.72 736.613 1459.37C733.201 1461.72 731.348 1462.33 727.223 1462.67C724.045 1460.63 724.228 1460.09 722.635 1456.86L724.785 1457.5L722.176 1458.18L722.519 1464.06C719.419 1466.74 718.526 1465.91 714.392 1465.64L711.132 1461.06C708.116 1462.05 707.292 1462.45 705.687 1465.47C705.106 1466.56 704.434 1468.57 704.005 1469.79C698.509 1469.79 697.917 1465.13 691.671 1465.43C691.953 1467.84 692.392 1468.99 693.377 1471.15L684.816 1468.92Z"/>
	<path fill="#500B2C" d="M2069.47 1979.78C2099.25 1950.02 2125.83 1919.54 2149.73 1884.87C2159.49 1870.72 2166 1849.79 2177.88 1838.16L2179.38 1838.98C2179.46 1842.66 2178.64 1843.43 2176.72 1846.36C2169.85 1856.81 2165.82 1870.85 2159.54 1882.05C2137.35 1921.62 2114.24 1958.44 2084.91 1993.19C2050.16 2035.21 1997.41 2085.21 1948.56 2110.58C1948.57 2108.35 1948.69 2105.04 1950.21 2103.23C1957.06 2095.07 1971.79 2089.02 1980.65 2082.63C2000.32 2068.46 2068.35 2012.57 2075.5 1993.82C2076.86 1990.24 2077.69 1988.49 2075.99 1984.85C2063.62 1992.36 2052.87 2004.5 2040.9 2013.08C1991.19 2048.68 1934.46 2079.85 1872.92 2087.83C1861.8 2089.27 1818.79 2090.93 1811.31 2085.08C1912.95 2086.16 1994.46 2045.54 2069.47 1979.78Z"/>
	<path fill="#500B2C" d="M1355.12 1551.5C1372.09 1552.15 1383.47 1556.74 1395.15 1569.43C1397.44 1571.92 1399.66 1574.43 1401.75 1577.1C1399.86 1580.53 1397.89 1582.64 1395.16 1585.37C1392.33 1581.7 1392.35 1576.53 1391.75 1572.06L1387.36 1572.59L1390.3 1569.03C1381.2 1578.25 1391.01 1617.95 1375.17 1618.48C1372.05 1618.58 1370.46 1617.59 1367.79 1616.25C1365.87 1615.29 1366.82 1615.69 1364.44 1614.99L1362.02 1619.29C1358.51 1620.17 1360.49 1619.96 1356.95 1619.71C1341.4 1618.61 1332.26 1630.35 1318.46 1614.95C1315.12 1611.23 1313.76 1606.76 1314.16 1601.81C1314.41 1598.71 1315.27 1595.87 1316.2 1592.92C1303.5 1602.67 1303.97 1622.6 1295.18 1634.51L1294.15 1631.17L1294.07 1632.42C1293.75 1628.14 1293.75 1624.04 1293.93 1619.75C1295.11 1615.49 1297.04 1611.35 1299.01 1607.4C1312.08 1581.28 1326.64 1561.2 1355.12 1551.5Z"/>
	<path fill="#500B2C" d="M872.35 1296.13C908.324 1338.72 938.02 1420.13 954.028 1472.88C952.331 1473.47 950.887 1474.36 949.322 1475.23C948.972 1476.42 948.44 1478.1 948.261 1479.28C947.63 1483.46 948.257 1484.01 950.571 1487.31L949.258 1488.1C947.201 1486.43 946.912 1486.63 946.081 1483.93C943.311 1474.91 942.426 1465.1 940.184 1455.88C936.321 1440.01 929.507 1421.1 922.381 1406.39C921.799 1408.09 921.058 1409.68 920.326 1411.32C911.465 1393.74 903.514 1373.12 895.517 1354.89C896.071 1351.94 896.939 1347.78 896.584 1344.76C895.017 1331.43 870.06 1316.79 872.35 1296.13Z"/>
	<defs>
		<linearGradient id="gradient_0" gradientUnits="userSpaceOnUse" x1="1729.2178" y1="2013.2867" x2="2018.1857" y2="859.33813">
			<stop offset="0" stop-color="#060506"/>
			<stop offset="1" stop-color="#3D3E43"/>
		</linearGradient>
	</defs>
	<path fill="url(#gradient_0)" d="M1687.16 1759.73C1740.61 1647.53 1771.98 1523.61 1799.75 1402.97C1832.91 1258.97 1838.95 1102.76 1944.48 988.312C1976.34 953.768 2016.42 925.393 2060.79 909.445C2105.83 893.256 2158.12 883.467 2203.62 903.135C2177.97 924.251 2159.88 947.889 2146.08 978.19C2130.02 1013.46 2119.03 1049.93 2107.79 1086.9C2091.79 1139.48 2077.34 1192.57 2060.78 1244.96Q2052.13 1273.04 2042.83 1300.91Q2033.54 1328.79 2023.59 1356.44Q2013.65 1384.08 2003.07 1411.49Q1992.48 1438.9 1981.26 1466.06Q1970.04 1493.22 1958.2 1520.11Q1946.35 1546.99 1933.88 1573.6Q1921.41 1600.21 1908.33 1626.51Q1895.24 1652.82 1881.55 1678.82C1831.67 1773.39 1770.89 1867.03 1691.8 1939.77C1676.44 1953.9 1659.47 1967.64 1641.78 1978.82C1634.88 1983.18 1616.19 1988.32 1612.33 1994.46L1611.09 1994.42C1604.76 1984.11 1590.96 1972.43 1582.86 1962.49C1576.33 1954.49 1555.68 1931.54 1553.14 1923.1C1552.78 1921.93 1553.64 1918.1 1553.78 1916.7L1557.88 1919.33C1558.25 1919.51 1558.6 1919.71 1558.98 1919.88C1566.75 1923.4 1573.36 1923.56 1581.35 1920.34C1621.02 1904.37 1670.73 1799.38 1687.16 1759.73Z"/>
	<defs>
		<linearGradient id="gradient_1" gradientUnits="userSpaceOnUse" x1="1531.6724" y1="1712.8594" x2="1414.3389" y2="1739.0616">
			<stop offset="0" stop-color="#44001A" stop-opacity="0"/>
			<stop offset="1" stop-color="#7C2A48" stop-opacity="0.0078431377"/>
		</linearGradient>
	</defs>
	<path fill="url(#gradient_1)" d="M1355.12 1551.5L1355.94 1547.16C1359.55 1545.33 1363.34 1546.14 1367.23 1546.46L1368.58 1545C1368.3 1544.41 1367.99 1543.83 1367.73 1543.23C1366.83 1541.16 1366.62 1539.98 1366.54 1537.78C1370.71 1536.91 1379.52 1538.71 1383.16 1541.07C1384.3 1541.81 1385.21 1542.99 1386.14 1543.91C1393.05 1550.68 1401.32 1555.51 1407.99 1562.67C1427.62 1583.75 1437.2 1612.9 1450.37 1638.12C1448.41 1640.13 1449.5 1639.36 1447.14 1640.53C1447.46 1640.95 1447.78 1641.37 1448.09 1641.81C1454.6 1651.04 1458.37 1679.77 1468.14 1684.15L1469.23 1683.67C1468.84 1682.92 1468.45 1682.18 1468.08 1681.44C1463.34 1671.93 1458.62 1657.92 1456.59 1647.49C1453.34 1630.75 1443.01 1613.97 1437.37 1597.78C1433.81 1587.56 1426.99 1575.17 1420.19 1566.77C1415.23 1560.65 1407.13 1553.31 1404.02 1546.31C1404.46 1546.72 1404.9 1547.14 1405.35 1547.54C1410.62 1552.32 1421.87 1562.27 1428.54 1563.52L1426.8 1560.63C1429.26 1559.2 1431.56 1558.2 1434.58 1558.92C1435.52 1559.14 1436.34 1559.75 1437.22 1560.16L1439.53 1558.9C1443 1560.2 1443.91 1560.25 1445.48 1563.89C1450.68 1575.88 1442.24 1593.03 1445.01 1605.33C1447.4 1615.93 1458.46 1627.32 1462.94 1637.71C1468.4 1639.85 1473.47 1641.1 1476.47 1646.37C1474.25 1654.4 1467.79 1670.59 1471.7 1678.01C1474.78 1679.64 1477.62 1681.17 1480.42 1683.28C1482.33 1689.88 1478.71 1694.39 1478.78 1700.59C1478.85 1707.03 1491.84 1712.65 1494.87 1717.8C1501.63 1729.34 1498.19 1746.4 1503.92 1758.2C1507.18 1759.17 1510.2 1759.69 1513.54 1760.16C1516.08 1763.14 1516.86 1764.74 1516.65 1768.77C1516.3 1775.5 1511.88 1784.38 1516.39 1790.31C1517.85 1792.23 1519.46 1793.65 1521.22 1795.29C1531.04 1804.46 1525.02 1824.54 1533.95 1836.74C1538.38 1842.79 1545.75 1858.6 1550.69 1862.59C1550.94 1862.79 1555.17 1863.55 1555.28 1863.57C1555.62 1863.61 1558.44 1863.66 1558.73 1863.67C1562.55 1863.79 1564.18 1864.77 1567.3 1866.87C1568.23 1874.62 1564.44 1882.42 1565.53 1889.69C1566.41 1895.59 1571.28 1899.95 1571.24 1906.19C1569.24 1907.44 1568.51 1907.44 1566.23 1907.62C1567.22 1911.19 1567.49 1910.52 1570.47 1912.29L1568.82 1914.18C1565.99 1914.14 1564.54 1913.6 1562.04 1912.31L1559.44 1913.59L1557.88 1919.33L1553.78 1916.7C1538.81 1903.03 1529.06 1883.2 1519.76 1865.48C1496.62 1821.38 1479.85 1774.99 1463.5 1728.08C1448.42 1684.82 1428.91 1612.59 1401.75 1577.1C1399.66 1574.43 1397.44 1571.92 1395.15 1569.43C1383.47 1556.74 1372.09 1552.15 1355.12 1551.5Z"/>
</svg>
